<mxfile host="app.diagrams.net" modified="2022-11-24T09:47:26.223Z" agent="5.0 (Windows NT 10.0; Win64; x64) AppleWebKit/537.36 (KHTML, like Gecko) Chrome/107.0.0.0 Safari/537.36" version="20.6.0" etag="0LwvpcUXBCSt4qzuaGRf" type="github">
  <diagram id="W5I1qEbB7bkZHy-zQESl" name="Page-1">
    <mxGraphModel dx="1085" dy="563" grid="1" gridSize="10" guides="1" tooltips="1" connect="1" arrows="1" fold="1" page="1" pageScale="1" pageWidth="850" pageHeight="1100" math="0" shadow="0">
      <root>
        <mxCell id="0" />
        <mxCell id="1" parent="0" />
        <mxCell id="Osd19pk7MYJneHNe3MTA-4" value="" style="edgeStyle=orthogonalEdgeStyle;rounded=0;orthogonalLoop=1;jettySize=auto;html=1;fontFamily=Lucida Console;fontSize=24;" edge="1" parent="1" source="Osd19pk7MYJneHNe3MTA-1" target="Osd19pk7MYJneHNe3MTA-3">
          <mxGeometry relative="1" as="geometry" />
        </mxCell>
        <mxCell id="Osd19pk7MYJneHNe3MTA-1" value="&lt;font face=&quot;Lucida Console&quot; style=&quot;font-size: 24px;&quot;&gt;เริ่มต้น&lt;/font&gt;" style="rounded=1;whiteSpace=wrap;html=1;fillColor=#dae8fc;strokeColor=#6c8ebf;" vertex="1" parent="1">
          <mxGeometry x="150" y="40" width="150" height="70" as="geometry" />
        </mxCell>
        <mxCell id="Osd19pk7MYJneHNe3MTA-6" value="" style="edgeStyle=orthogonalEdgeStyle;rounded=0;orthogonalLoop=1;jettySize=auto;html=1;fontFamily=Lucida Console;fontSize=20;" edge="1" parent="1" source="Osd19pk7MYJneHNe3MTA-3" target="Osd19pk7MYJneHNe3MTA-5">
          <mxGeometry relative="1" as="geometry" />
        </mxCell>
        <mxCell id="Osd19pk7MYJneHNe3MTA-3" value="&lt;div style=&quot;font-size: 20px;&quot;&gt;&lt;font style=&quot;font-size: 20px;&quot;&gt;&lt;br&gt;&lt;/font&gt;&lt;/div&gt;&lt;div style=&quot;font-size: 20px;&quot;&gt;&lt;font style=&quot;font-size: 20px;&quot;&gt;ตื่นนอนกับเช้าที่สดใสของวัยรุ่นพังงา&lt;/font&gt;&lt;/div&gt;&lt;div style=&quot;font-size: 20px;&quot;&gt;&lt;br&gt;&lt;/div&gt;" style="whiteSpace=wrap;html=1;rounded=1;fillColor=#f8cecc;strokeColor=#b85450;" vertex="1" parent="1">
          <mxGeometry x="125" y="140" width="200" height="60" as="geometry" />
        </mxCell>
        <mxCell id="Osd19pk7MYJneHNe3MTA-8" value="" style="edgeStyle=orthogonalEdgeStyle;rounded=0;orthogonalLoop=1;jettySize=auto;html=1;fontFamily=Lucida Console;fontSize=20;" edge="1" parent="1" source="Osd19pk7MYJneHNe3MTA-5" target="Osd19pk7MYJneHNe3MTA-7">
          <mxGeometry relative="1" as="geometry" />
        </mxCell>
        <mxCell id="Osd19pk7MYJneHNe3MTA-5" value="&lt;font style=&quot;font-size: 20px;&quot;&gt;อาบน้ำแบบเจ้าหญิงให้ตัวหอมชื่นใจ&lt;/font&gt;" style="whiteSpace=wrap;html=1;rounded=1;fillColor=#f8cecc;strokeColor=#b85450;" vertex="1" parent="1">
          <mxGeometry x="450" y="140" width="245" height="60" as="geometry" />
        </mxCell>
        <mxCell id="Osd19pk7MYJneHNe3MTA-10" value="" style="edgeStyle=orthogonalEdgeStyle;rounded=0;orthogonalLoop=1;jettySize=auto;html=1;fontFamily=Lucida Console;fontSize=20;" edge="1" parent="1" source="Osd19pk7MYJneHNe3MTA-7" target="Osd19pk7MYJneHNe3MTA-9">
          <mxGeometry relative="1" as="geometry" />
        </mxCell>
        <mxCell id="Osd19pk7MYJneHNe3MTA-7" value="&lt;div style=&quot;font-size: 20px;&quot;&gt;&lt;font style=&quot;font-size: 20px;&quot;&gt;ล้างหน้าให้ใสกิ้งๆ&lt;/font&gt;&lt;/div&gt;" style="whiteSpace=wrap;html=1;rounded=1;fillColor=#f8cecc;strokeColor=#b85450;" vertex="1" parent="1">
          <mxGeometry x="473.75" y="240" width="197.5" height="60" as="geometry" />
        </mxCell>
        <mxCell id="Osd19pk7MYJneHNe3MTA-14" value="" style="edgeStyle=orthogonalEdgeStyle;rounded=0;orthogonalLoop=1;jettySize=auto;html=1;fontFamily=Lucida Console;fontSize=20;" edge="1" parent="1" source="Osd19pk7MYJneHNe3MTA-9" target="Osd19pk7MYJneHNe3MTA-13">
          <mxGeometry relative="1" as="geometry" />
        </mxCell>
        <mxCell id="Osd19pk7MYJneHNe3MTA-9" value="&lt;div style=&quot;font-size: 20px;&quot;&gt;&lt;font style=&quot;font-size: 20px;&quot;&gt;แปรงฟันให้ขาวสะอาดวิ้งๆ&lt;/font&gt;&lt;/div&gt;" style="whiteSpace=wrap;html=1;rounded=1;fillColor=#f8cecc;strokeColor=#b85450;" vertex="1" parent="1">
          <mxGeometry x="110" y="240" width="230" height="60" as="geometry" />
        </mxCell>
        <mxCell id="Osd19pk7MYJneHNe3MTA-16" value="" style="edgeStyle=orthogonalEdgeStyle;rounded=0;orthogonalLoop=1;jettySize=auto;html=1;fontFamily=Lucida Console;fontSize=20;" edge="1" parent="1" source="Osd19pk7MYJneHNe3MTA-13" target="Osd19pk7MYJneHNe3MTA-15">
          <mxGeometry relative="1" as="geometry" />
        </mxCell>
        <mxCell id="Osd19pk7MYJneHNe3MTA-13" value="&lt;div&gt;&lt;font style=&quot;font-size: 20px;&quot;&gt;รีดเสื้อ และกระโปรงนักศึกษา&lt;/font&gt;&lt;/div&gt;" style="whiteSpace=wrap;html=1;fillColor=#f8cecc;strokeColor=#b85450;rounded=1;" vertex="1" parent="1">
          <mxGeometry x="97.5" y="340" width="255" height="60" as="geometry" />
        </mxCell>
        <mxCell id="Osd19pk7MYJneHNe3MTA-18" value="" style="edgeStyle=orthogonalEdgeStyle;rounded=0;orthogonalLoop=1;jettySize=auto;html=1;fontFamily=Lucida Console;fontSize=20;" edge="1" parent="1" source="Osd19pk7MYJneHNe3MTA-15" target="Osd19pk7MYJneHNe3MTA-17">
          <mxGeometry relative="1" as="geometry" />
        </mxCell>
        <mxCell id="Osd19pk7MYJneHNe3MTA-15" value="&lt;div&gt;&lt;font style=&quot;font-size: 20px;&quot;&gt;แต่งหน้านิดหน่อย เพราะสวยอยู่แล้วไม่ต้องแต่ง&lt;/font&gt;&lt;/div&gt;" style="whiteSpace=wrap;html=1;fillColor=#f8cecc;strokeColor=#b85450;rounded=1;" vertex="1" parent="1">
          <mxGeometry x="427.5" y="340" width="290" height="60" as="geometry" />
        </mxCell>
        <mxCell id="Osd19pk7MYJneHNe3MTA-20" value="" style="edgeStyle=orthogonalEdgeStyle;rounded=0;orthogonalLoop=1;jettySize=auto;html=1;fontFamily=Lucida Console;fontSize=20;" edge="1" parent="1" source="Osd19pk7MYJneHNe3MTA-17" target="Osd19pk7MYJneHNe3MTA-19">
          <mxGeometry relative="1" as="geometry" />
        </mxCell>
        <mxCell id="Osd19pk7MYJneHNe3MTA-17" value="&lt;div&gt;&lt;font style=&quot;font-size: 20px;&quot;&gt;ทำผมถักเปียให้สวยระเบียบพร้อมติดโบว์ตามระเบียบของวิทยาลัย&lt;/font&gt;&lt;/div&gt;" style="whiteSpace=wrap;html=1;fillColor=#f8cecc;strokeColor=#b85450;rounded=1;" vertex="1" parent="1">
          <mxGeometry x="420" y="440" width="305" height="60" as="geometry" />
        </mxCell>
        <mxCell id="Osd19pk7MYJneHNe3MTA-22" value="" style="edgeStyle=orthogonalEdgeStyle;rounded=0;orthogonalLoop=1;jettySize=auto;html=1;fontFamily=Lucida Console;fontSize=20;" edge="1" parent="1" source="Osd19pk7MYJneHNe3MTA-19" target="Osd19pk7MYJneHNe3MTA-21">
          <mxGeometry relative="1" as="geometry" />
        </mxCell>
        <mxCell id="Osd19pk7MYJneHNe3MTA-19" value="&lt;font style=&quot;font-size: 20px;&quot;&gt;แต่งตัวด้วยชุดนักศึกษา&lt;br&gt;ให้เรียบร้อยแล้วก็ใส่เนคไท&lt;/font&gt;" style="whiteSpace=wrap;html=1;fillColor=#f8cecc;strokeColor=#b85450;rounded=1;" vertex="1" parent="1">
          <mxGeometry x="105" y="440" width="240" height="60" as="geometry" />
        </mxCell>
        <mxCell id="Osd19pk7MYJneHNe3MTA-24" value="" style="edgeStyle=orthogonalEdgeStyle;rounded=0;orthogonalLoop=1;jettySize=auto;html=1;fontFamily=Lucida Console;fontSize=20;" edge="1" parent="1" source="Osd19pk7MYJneHNe3MTA-21" target="Osd19pk7MYJneHNe3MTA-23">
          <mxGeometry relative="1" as="geometry" />
        </mxCell>
        <mxCell id="Osd19pk7MYJneHNe3MTA-21" value="&lt;font style=&quot;font-size: 20px;&quot;&gt;จัดตารางเรียนที่เรารักกัน&lt;/font&gt;" style="whiteSpace=wrap;html=1;fillColor=#f8cecc;strokeColor=#b85450;rounded=1;" vertex="1" parent="1">
          <mxGeometry x="117.5" y="540" width="215" height="60" as="geometry" />
        </mxCell>
        <mxCell id="Osd19pk7MYJneHNe3MTA-26" value="" style="edgeStyle=orthogonalEdgeStyle;rounded=0;orthogonalLoop=1;jettySize=auto;html=1;fontFamily=Lucida Console;fontSize=20;" edge="1" parent="1" source="Osd19pk7MYJneHNe3MTA-23" target="Osd19pk7MYJneHNe3MTA-25">
          <mxGeometry relative="1" as="geometry" />
        </mxCell>
        <mxCell id="Osd19pk7MYJneHNe3MTA-23" value="&lt;font style=&quot;font-size: 20px;&quot;&gt;สะพานกระเป๋าออกจากห้องพร้อมโน้ตบุ๊คของเรา&lt;/font&gt;" style="whiteSpace=wrap;html=1;fillColor=#f8cecc;strokeColor=#b85450;rounded=1;" vertex="1" parent="1">
          <mxGeometry x="437.5" y="540" width="270" height="60" as="geometry" />
        </mxCell>
        <mxCell id="Osd19pk7MYJneHNe3MTA-28" value="" style="edgeStyle=orthogonalEdgeStyle;rounded=0;orthogonalLoop=1;jettySize=auto;html=1;fontFamily=Lucida Console;fontSize=20;" edge="1" parent="1" source="Osd19pk7MYJneHNe3MTA-25" target="Osd19pk7MYJneHNe3MTA-27">
          <mxGeometry relative="1" as="geometry" />
        </mxCell>
        <mxCell id="Osd19pk7MYJneHNe3MTA-25" value="&lt;div&gt;&lt;span style=&quot;font-size: 20px;&quot;&gt;เอากระเป๋าไปเก็บที่ตึกเรียนพร้อมจัดทรงผมให้สวยงาม5555&lt;/span&gt;&lt;/div&gt;" style="whiteSpace=wrap;html=1;fillColor=#f8cecc;strokeColor=#b85450;rounded=1;" vertex="1" parent="1">
          <mxGeometry x="428.75" y="640" width="287.5" height="60" as="geometry" />
        </mxCell>
        <mxCell id="Osd19pk7MYJneHNe3MTA-30" value="" style="edgeStyle=orthogonalEdgeStyle;rounded=0;orthogonalLoop=1;jettySize=auto;html=1;fontFamily=Lucida Console;fontSize=20;" edge="1" parent="1" source="Osd19pk7MYJneHNe3MTA-27" target="Osd19pk7MYJneHNe3MTA-29">
          <mxGeometry relative="1" as="geometry" />
        </mxCell>
        <mxCell id="Osd19pk7MYJneHNe3MTA-27" value="&lt;div&gt;&lt;font style=&quot;font-size: 20px;&quot;&gt;เอากระเป๋าไปเก็บที่ตึกเรียนพร้อมจัดทรงผมให้สวยงาม5555&lt;/font&gt;&lt;/div&gt;" style="whiteSpace=wrap;html=1;fillColor=#f8cecc;strokeColor=#b85450;rounded=1;" vertex="1" parent="1">
          <mxGeometry x="92.5" y="640" width="265" height="60" as="geometry" />
        </mxCell>
        <mxCell id="Osd19pk7MYJneHNe3MTA-32" value="" style="edgeStyle=orthogonalEdgeStyle;rounded=0;orthogonalLoop=1;jettySize=auto;html=1;fontFamily=Lucida Console;fontSize=20;" edge="1" parent="1" source="Osd19pk7MYJneHNe3MTA-29" target="Osd19pk7MYJneHNe3MTA-31">
          <mxGeometry relative="1" as="geometry" />
        </mxCell>
        <mxCell id="Osd19pk7MYJneHNe3MTA-29" value="&lt;div&gt;&lt;font style=&quot;font-size: 20px;&quot;&gt;ตรวจระเบียบตั้งแต่หัวจรดเท้า แต่ไม่เคย&lt;/font&gt;&lt;/div&gt;&lt;div&gt;&lt;font style=&quot;font-size: 20px;&quot;&gt;โดนทำโทษเพราะเป็นเด็กดีค่ะ&lt;/font&gt;&lt;/div&gt;" style="whiteSpace=wrap;html=1;fillColor=#f8cecc;strokeColor=#b85450;rounded=1;" vertex="1" parent="1">
          <mxGeometry x="47.5" y="740" width="355" height="60" as="geometry" />
        </mxCell>
        <mxCell id="Osd19pk7MYJneHNe3MTA-34" value="" style="edgeStyle=orthogonalEdgeStyle;rounded=0;orthogonalLoop=1;jettySize=auto;html=1;fontFamily=Lucida Console;fontSize=20;" edge="1" parent="1" source="Osd19pk7MYJneHNe3MTA-31" target="Osd19pk7MYJneHNe3MTA-33">
          <mxGeometry relative="1" as="geometry" />
        </mxCell>
        <mxCell id="Osd19pk7MYJneHNe3MTA-31" value="&lt;font style=&quot;font-size: 20px;&quot;&gt;เลิกแถวพร้อมเข้าเรียนวิชาที่เรารักกัน&lt;/font&gt;" style="whiteSpace=wrap;html=1;fillColor=#f8cecc;strokeColor=#b85450;rounded=1;" vertex="1" parent="1">
          <mxGeometry x="462.5" y="740" width="220" height="60" as="geometry" />
        </mxCell>
        <mxCell id="Osd19pk7MYJneHNe3MTA-36" value="" style="edgeStyle=orthogonalEdgeStyle;rounded=0;orthogonalLoop=1;jettySize=auto;html=1;fontFamily=Lucida Console;fontSize=20;" edge="1" parent="1" source="Osd19pk7MYJneHNe3MTA-33" target="Osd19pk7MYJneHNe3MTA-35">
          <mxGeometry relative="1" as="geometry" />
        </mxCell>
        <mxCell id="Osd19pk7MYJneHNe3MTA-33" value="&lt;font style=&quot;font-size: 20px;&quot;&gt;เข้าเรียนอย่างปลอดภัยสวยงาม&lt;/font&gt;" style="whiteSpace=wrap;html=1;fillColor=#f8cecc;strokeColor=#b85450;rounded=1;" vertex="1" parent="1">
          <mxGeometry x="443.75" y="880" width="257.5" height="60" as="geometry" />
        </mxCell>
        <mxCell id="Osd19pk7MYJneHNe3MTA-35" value="END" style="whiteSpace=wrap;html=1;fillColor=#dae8fc;strokeColor=#6c8ebf;rounded=1;" vertex="1" parent="1">
          <mxGeometry x="175" y="880" width="120" height="60" as="geometry" />
        </mxCell>
      </root>
    </mxGraphModel>
  </diagram>
</mxfile>
